<svg id="Ebene_1" data-name="Ebene 1" xmlns="http://www.w3.org/2000/svg" width="256" height="256" viewBox="0 0 256 256"><defs><style>.cls-1{fill:#999;stroke:#103a5d;stroke-linecap:round;stroke-linejoin:round;stroke-width:0.75px;}.cls-2{fill:#e6e6e6;}.cls-3{fill:#ccc;}.cls-4{fill:#f2f2f2;}.cls-5{fill:#103a5d;stroke:#000;stroke-miterlimit:10;}</style></defs><title>missing</title><rect class="cls-1" x="-1.5" y="0.5" width="258" height="256"/><circle class="cls-2" cx="46.5" cy="41.5" r="28"/><polygon class="cls-3" points="256.5 165.87 256.5 256.5 -1.5 256.5 -1.5 171.06 55 127.69 113 183.44 180 118 238 199.19 256.5 165.87"/><polygon class="cls-2" points="256.5 184.87 256.5 256.5 -1.5 256.5 -1.5 190.06 55 146.69 113 202.44 180 137 238 218.19 256.5 184.87"/><polygon class="cls-4" points="256.5 256.5 -1.5 256.5 -1.5 218.95 17 206 35 217 54 209 70 222 102 214 115 228 135 213 150 220 168 213 184 226 202 213 227 220 240 235 256.5 223 256.5 256.5"/><path class="cls-5" d="M227.49,67.83V83.26c0,29.74-7.71,40.21-30.3,50.4L169.1,147.15c-7.71,3.59-13.49,7.17-14.87,13.78l-.55,3.3a3.71,3.71,0,0,1-3.86,3.58H119a3.7,3.7,0,0,1-3.85-3.58L113.19,151c-2.75-17.35.83-24.79,23.14-36.91l25.61-13.22c9.36-4.95,14.6-9.08,14.6-19v-5c0-14-8-16.52-29.2-16.52H92q-4.12,0-4.13-4.13V29.55c0-5.51,2.21-7.16,6.89-8.54,13.77-3,25.89-5,53.15-5C190,16.05,227.49,23.49,227.49,67.83ZM161.94,209.4c0,16-10.19,25.34-27.82,25.34s-27.81-9.37-27.81-25.34c0-15.7,10.19-25.06,27.81-25.06S161.94,193.7,161.94,209.4Z"/></svg>